<svg width="18" height="18" viewBox="0 0 18 18" fill="none" xmlns="http://www.w3.org/2000/svg">
<rect width="18" height="18" rx="9" fill="#CBFFC4"/>
<path d="M8.12026 12C7.85157 12 7.62766 11.903 7.44854 11.709L5.21235 9.25112C5.13434 9.16985 5.07945 9.0912 5.04767 9.01517C5.01589 8.93914 5 8.86049 5 8.77921C5 8.59307 5.06789 8.4397 5.20368 8.3191C5.34236 8.19588 5.51571 8.13427 5.72373 8.13427C5.95486 8.13427 6.14698 8.21948 6.30011 8.38989L8.10293 10.4152L11.6436 5.3382C11.7331 5.21498 11.8256 5.12846 11.9209 5.07865C12.0191 5.02622 12.139 5 12.2806 5C12.4886 5 12.6605 5.0603 12.7963 5.1809C12.9321 5.3015 13 5.45356 13 5.63708C13 5.70524 12.987 5.77603 12.961 5.84944C12.935 5.92285 12.8945 5.99888 12.8397 6.07753L8.80498 11.6815C8.64608 11.8938 8.41784 12 8.12026 12Z" fill="#119200"/>
</svg>
