<svg width="18" height="18" viewBox="0 0 18 18" fill="none" xmlns="http://www.w3.org/2000/svg">
<rect width="18" height="18" rx="9" fill="#F0F0F5"/>
<path d="M6.15682 11.8431C6.08674 11.773 6.03962 11.6908 6.01545 11.5964C5.9937 11.4997 5.99491 11.4054 6.01908 11.3135C6.04324 11.2192 6.08795 11.1394 6.1532 11.0742L8.22296 8.99952L6.1532 6.92851C6.08795 6.86322 6.04324 6.78343 6.01908 6.68913C5.99733 6.59483 5.99733 6.50052 6.01908 6.40622C6.04324 6.31192 6.08916 6.22971 6.15682 6.15959C6.2269 6.08705 6.30906 6.0399 6.40331 6.01813C6.49997 5.99637 6.59542 5.99637 6.68967 6.01813C6.78391 6.0399 6.86486 6.08463 6.93253 6.15233L9.00229 8.21972L11.0684 6.15233C11.1361 6.08463 11.217 6.0399 11.3113 6.01813C11.4055 5.99396 11.4986 5.99396 11.5904 6.01813C11.6846 6.04231 11.768 6.08947 11.8405 6.15959C11.9106 6.22971 11.9577 6.31192 11.9819 6.40622C12.006 6.50052 12.006 6.59483 11.9819 6.68913C11.9601 6.78101 11.9154 6.86202 11.8478 6.93214L9.78162 8.99952L11.8478 11.0705C11.9154 11.1382 11.9601 11.2192 11.9819 11.3135C12.0036 11.4078 12.0024 11.5021 11.9783 11.5964C11.9565 11.6908 11.9106 11.773 11.8405 11.8431C11.7704 11.9132 11.6883 11.9591 11.594 11.9809C11.4998 12.0051 11.4055 12.0063 11.3113 11.9845C11.217 11.9628 11.1361 11.9168 11.0684 11.8467L9.00229 9.77933L6.93253 11.8503C6.86486 11.9156 6.78391 11.9591 6.68967 11.9809C6.59784 12.0051 6.50359 12.0051 6.40693 11.9809C6.31269 11.9591 6.22932 11.9132 6.15682 11.8431Z" fill="#787878"/>
</svg>
