<svg width="22" height="23" viewBox="0 0 22 23" fill="none" xmlns="http://www.w3.org/2000/svg">
<path fill-rule="evenodd" clip-rule="evenodd" d="M4.60653 11.244C4.60653 10.5136 4.72784 9.81338 4.94435 9.15661L1.1547 6.2627C0.416124 7.7623 0 9.45203 0 11.244C0 13.0344 0.415612 14.7231 1.15317 16.2217L4.94076 13.3222C4.7263 12.6684 4.60653 11.9708 4.60653 11.244Z" fill="#FBBC05"/>
<path fill-rule="evenodd" clip-rule="evenodd" d="M11.26 4.6C12.8467 4.6 14.2798 5.16222 15.4059 6.08222L18.6816 2.81111C16.6855 1.07333 14.1263 0 11.26 0C6.8101 0 2.98565 2.54482 1.1543 6.26316L4.94394 9.15707C5.81713 6.50644 8.3062 4.6 11.26 4.6Z" fill="#EB4335"/>
<path fill-rule="evenodd" clip-rule="evenodd" d="M11.26 17.8891C8.3062 17.8891 5.81713 15.9827 4.94394 13.332L1.1543 16.2254C2.98565 19.9443 6.8101 22.4891 11.26 22.4891C14.0065 22.4891 16.6287 21.5139 18.5967 19.6867L14.9995 16.9057C13.9845 17.5451 12.7065 17.8891 11.26 17.8891Z" fill="#34A853"/>
<path fill-rule="evenodd" clip-rule="evenodd" d="M22.0093 11.2446C22.0093 10.5802 21.907 9.86464 21.7534 9.2002H11.2607V13.5446H17.3004C16.9984 15.0258 16.1764 16.1646 15.0002 16.9057L18.5974 19.6867C20.6647 17.768 22.0093 14.9098 22.0093 11.2446Z" fill="#4285F4"/>
</svg>
