<svg width="56" height="36" viewBox="0 0 56 36" fill="none" xmlns="http://www.w3.org/2000/svg">
<path fill-rule="evenodd" clip-rule="evenodd" d="M51.1755 35.4516C49.6836 35.7192 49.672 35.6337 18.3492 35.6372C5.18599 35.6386 5.10761 35.7476 3.5651 34.9659C0.0660557 33.1926 0.0326367 29.6988 0.0274444 29.1546C-0.0378542 22.3282 0.034485 22.3414 0.0298327 6.57898C0.0296665 5.99926 0.0285039 2.10802 3.93811 0.475642C5.30683 -0.0958369 5.35618 0.0151631 18.6088 0.00787666C21.1217 0.00648579 49.487 -0.00910335 50.0205 0.00783611C52.479 0.085932 55.9569 2.07657 55.9934 6.31953C55.9958 6.60264 56.0064 29.2015 55.9929 29.4141C55.7129 33.8469 52.6538 34.9586 51.1755 35.4516Z" fill="url(#paint0_linear_2548_7945)"/>
<defs>
<linearGradient id="paint0_linear_2548_7945" x1="55" y1="7.5" x2="-1.26981e-06" y2="31.5" gradientUnits="userSpaceOnUse">
<stop stop-color="#5094E2"/>
<stop offset="0.543269" stop-color="#2B88F3"/>
</linearGradient>
</defs>
</svg>
