<svg width="28" height="21" viewBox="0 0 28 21" fill="none" xmlns="http://www.w3.org/2000/svg">
<path fill-rule="evenodd" clip-rule="evenodd" d="M11.5546 13.0214C6.14415 15.2233 5.28885 15.6532 3.78002 14.0033C0.221636 10.1122 -0.425518 10.0262 0.222342 9.23832C1.64525 7.50796 6.50458 9.6684 6.81773 9.61692C8.37436 9.36096 23.2783 -0.550625 27.5145 2.06804C28.8849 2.91511 27.6003 5.62821 20.4693 9.03332C16.5738 10.8934 15.893 11.1795 11.5546 13.0214Z" fill="#404040"/>
<path fill-rule="evenodd" clip-rule="evenodd" d="M10.1524 7.01463C10.1368 7.0082 10.1232 6.9971 10.1104 6.98606C5.33365 2.84082 3.6485 1.65839 4.10782 0.800836C5.03899 -0.937669 9.10029 0.675599 9.50143 0.834952C11.4601 1.61298 16.0248 3.92162 16.0988 3.96926C16.1558 4.00591 16.1078 4.04965 15.3796 4.41652C11.1824 6.53124 10.4181 7.12431 10.1524 7.01463Z" fill="#404040"/>
<path fill-rule="evenodd" clip-rule="evenodd" d="M17.675 15.685C17.2781 16.6453 16.1455 19.9066 13.9128 20.6988C13.1084 20.9842 12.4345 20.721 12.3967 19.8531C12.3752 19.359 12.3342 18.4182 12.9392 13.6947C12.9732 13.4293 12.9671 13.3155 13.0273 13.2048C13.0799 13.1081 13.1829 13.05 13.2838 13.0063C15.9864 11.8357 16.0282 11.8151 18.8041 10.5441C18.8337 10.5305 19.2352 10.3466 19.2058 10.4773C18.6625 12.8901 17.8197 15.2756 17.675 15.685Z" fill="#404040"/>
</svg>
