<svg width="16" height="14" viewBox="0 0 16 14" fill="none" xmlns="http://www.w3.org/2000/svg">
<path d="M15.95 12.6499C15.95 12.7957 15.8921 12.9356 15.7889 13.0388C15.6858 13.1419 15.5459 13.1999 15.4 13.1999H5.5C5.35413 13.1999 5.21424 13.1419 5.11109 13.0388C5.00795 12.9356 4.95 12.7957 4.95 12.6499C4.95 12.504 5.00795 12.3641 5.11109 12.2609C5.21424 12.1578 5.35413 12.0999 5.5 12.0999H15.4C15.5459 12.0999 15.6858 12.1578 15.7889 12.2609C15.8921 12.3641 15.95 12.504 15.95 12.6499ZM14.3 10.9999C14.4459 10.9999 14.5858 10.9419 14.6889 10.8388C14.7921 10.7356 14.85 10.5957 14.85 10.4499V7.99685C14.8486 7.3963 14.6512 6.81261 14.2879 6.3344C13.9246 5.8562 13.4152 5.5096 12.837 5.34723L8.65425 4.17848L7.10738 0.491415C7.07708 0.41905 7.03165 0.354004 6.97414 0.300643C6.91663 0.247283 6.84837 0.206844 6.77394 0.18204L6.39787 0.0569154C6.23257 0.00180939 6.05654 -0.0132378 5.88428 0.0130135C5.71202 0.0392648 5.54846 0.106064 5.40707 0.207908C5.26569 0.309752 5.15052 0.443727 5.07105 0.5988C4.99159 0.753872 4.9501 0.925605 4.95 1.09985V3.12042L2.89644 2.53535L2.167 0.516165C2.13872 0.438012 2.0931 0.367283 2.03356 0.309294C1.97403 0.251304 1.90212 0.207561 1.82325 0.181353L1.44719 0.0562277C1.28187 0.00123778 1.10585 -0.0136965 0.933629 0.0126545C0.761407 0.0390055 0.597909 0.105888 0.456595 0.207795C0.315281 0.309702 0.200195 0.443718 0.120813 0.598809C0.041431 0.753899 2.3347e-05 0.925627 0 1.09985V4.9306C0.00131753 5.53033 0.198066 6.11329 0.560438 6.59116C0.92281 7.06903 1.43106 7.41577 2.00819 7.57885L14.1515 10.9792C14.1998 10.9928 14.2498 10.9998 14.3 10.9999Z" fill="#999999"/>
</svg>
