<svg width="17" height="13" viewBox="0 0 17 13" fill="none" xmlns="http://www.w3.org/2000/svg">
<path d="M11.5488 11.5501C11.5488 11.696 11.4908 11.8359 11.3877 11.939C11.2845 12.0422 11.1447 12.1001 10.9988 12.1001H1.09878C0.952914 12.1001 0.813019 12.0422 0.709874 11.939C0.606729 11.8359 0.548783 11.696 0.548783 11.5501C0.548783 11.4043 0.606729 11.2644 0.709874 11.1612C0.813019 11.0581 0.952914 11.0001 1.09878 11.0001H10.9988C11.1447 11.0001 11.2845 11.0581 11.3877 11.1612C11.4908 11.2644 11.5488 11.4043 11.5488 11.5501ZM16.3826 2.66488L15.1011 1.02244L15.0928 1.01213C14.6784 0.501682 14.0942 0.157427 13.4468 0.0423005C12.7995 -0.0728259 12.1323 0.0488665 11.5673 0.385131L8.02191 2.50126L4.31353 1.13726C4.1896 1.09104 4.05316 1.09104 3.92922 1.13726L3.43628 1.32494L3.41428 1.33388C3.24564 1.40627 3.0978 1.5197 2.98421 1.66384C2.87062 1.80798 2.79489 1.97825 2.76394 2.15914C2.73298 2.34003 2.74777 2.52579 2.80697 2.6995C2.86616 2.87321 2.96788 3.02935 3.10285 3.15369L4.60503 4.61051L3.21835 5.44926L1.27547 4.79338C1.13796 4.74705 0.987721 4.75694 0.85747 4.82088L0.65122 4.92194C0.486209 4.99568 0.34191 5.10894 0.231081 5.25171C0.120253 5.39448 0.0463113 5.56236 0.015794 5.7405C-0.0147232 5.91864 -0.000875409 6.10156 0.0561129 6.27308C0.113101 6.44459 0.211474 6.59943 0.342533 6.72388L2.81753 9.14869L2.82578 9.15694C3.33276 9.63613 4.00369 9.90347 4.70128 9.90426C5.19101 9.90346 5.67171 9.77249 6.09416 9.52476L16.2286 3.47476C16.2955 3.43479 16.3531 3.38108 16.3976 3.31717C16.4422 3.25326 16.4727 3.18062 16.487 3.10405C16.5014 3.02748 16.4993 2.94873 16.481 2.87302C16.4626 2.79731 16.4284 2.72637 16.3805 2.66488H16.3826Z" fill="#999999"/>
</svg>
