<svg width="10" height="10" viewBox="0 0 10 10" fill="none" xmlns="http://www.w3.org/2000/svg">
<path d="M0.280273 9.17383C0.166341 9.0599 0.0911458 8.92773 0.0546875 8.77734C0.0182292 8.6224 0.0182292 8.46973 0.0546875 8.31934C0.0911458 8.16895 0.164062 8.03906 0.273438 7.92969L3.47949 4.72363L0.273438 1.52441C0.164062 1.41504 0.0911458 1.28516 0.0546875 1.13477C0.0182292 0.984375 0.0182292 0.833984 0.0546875 0.683594C0.0911458 0.528646 0.166341 0.394206 0.280273 0.280273C0.389648 0.170898 0.519531 0.0979818 0.669922 0.0615234C0.82487 0.0205078 0.977539 0.0205078 1.12793 0.0615234C1.28288 0.0979818 1.41504 0.16862 1.52441 0.273438L4.72363 3.47949L7.92969 0.280273C8.03906 0.170898 8.16667 0.0979818 8.3125 0.0615234C8.46289 0.0205078 8.61328 0.0205078 8.76367 0.0615234C8.91862 0.0979818 9.05078 0.173177 9.16016 0.287109C9.27865 0.396484 9.35612 0.528646 9.39258 0.683594C9.42904 0.833984 9.42904 0.984375 9.39258 1.13477C9.35612 1.28516 9.28092 1.41504 9.16699 1.52441L5.97461 4.72363L9.16699 7.92969C9.28092 8.03906 9.35612 8.16895 9.39258 8.31934C9.42904 8.46973 9.42904 8.6224 9.39258 8.77734C9.35612 8.92773 9.27865 9.05762 9.16016 9.16699C9.05078 9.28092 8.91862 9.3584 8.76367 9.39941C8.61328 9.43587 8.46289 9.43587 8.3125 9.39941C8.16667 9.36296 8.03906 9.28776 7.92969 9.17383L4.72363 5.97461L1.52441 9.18066C1.41504 9.28548 1.28288 9.3584 1.12793 9.39941C0.977539 9.43587 0.82487 9.43587 0.669922 9.39941C0.519531 9.3584 0.389648 9.2832 0.280273 9.17383Z" fill="#5E5E5E"/>
</svg>
