<svg width="36" height="36" viewBox="0 0 36 36" fill="none" xmlns="http://www.w3.org/2000/svg">
<path d="M29.1429 15.6C29.3702 15.6 29.5882 15.5157 29.7489 15.3657C29.9097 15.2157 30 15.0122 30 14.8V11.6C30 11.1757 29.8194 10.7687 29.4979 10.4686C29.1764 10.1686 28.7404 10 28.2857 10H7.71429C7.25963 10 6.82359 10.1686 6.5021 10.4686C6.18061 10.7687 6 11.1757 6 11.6V14.8C6 15.0122 6.09031 15.2157 6.25105 15.3657C6.4118 15.5157 6.62981 15.6 6.85714 15.6C7.53913 15.6 8.19318 15.8529 8.67542 16.3029C9.15765 16.753 9.42857 17.3635 9.42857 18C9.42857 18.6365 9.15765 19.247 8.67542 19.6971C8.19318 20.1471 7.53913 20.4 6.85714 20.4C6.62981 20.4 6.4118 20.4843 6.25105 20.6343C6.09031 20.7843 6 20.9878 6 21.2V24.4C6 24.8243 6.18061 25.2313 6.5021 25.5314C6.82359 25.8314 7.25963 26 7.71429 26H28.2857C28.7404 26 29.1764 25.8314 29.4979 25.5314C29.8194 25.2313 30 24.8243 30 24.4V21.2C30 20.9878 29.9097 20.7843 29.7489 20.6343C29.5882 20.4843 29.3702 20.4 29.1429 20.4C28.4609 20.4 27.8068 20.1471 27.3246 19.6971C26.8423 19.247 26.5714 18.6365 26.5714 18C26.5714 17.3635 26.8423 16.753 27.3246 16.3029C27.8068 15.8529 28.4609 15.6 29.1429 15.6ZM7.71429 21.92C8.6831 21.7364 9.55412 21.2458 10.1798 20.5314C10.8054 19.817 11.1472 18.9227 11.1472 18C11.1472 17.0773 10.8054 16.183 10.1798 15.4686C9.55412 14.7542 8.6831 14.2636 7.71429 14.08V11.6H13.7143V24.4H7.71429V21.92Z" fill="#ADADAD"/>
</svg>
