<svg width="23" height="22" viewBox="0 0 23 22" fill="none" xmlns="http://www.w3.org/2000/svg">
<path d="M11.4844 0C13.0729 0 14.5605 0.240885 15.9473 0.722656C17.3405 1.19792 18.5612 1.85872 19.6094 2.70508C20.6641 3.55143 21.4844 4.53451 22.0703 5.6543C22.6628 6.77409 22.959 7.97852 22.959 9.26758C22.959 10.3223 22.7637 11.3184 22.373 12.2559C21.9824 13.1934 21.4258 14.0462 20.7031 14.8145C19.9805 15.5827 19.1146 16.2467 18.1055 16.8066C17.1029 17.36 15.9896 17.7832 14.7656 18.0762C13.5417 18.3757 12.2331 18.5156 10.8398 18.4961C10.1367 19.0039 9.38802 19.4694 8.59375 19.8926C7.79948 20.3223 7.04427 20.6673 6.32812 20.9277C5.61198 21.1882 5.02604 21.3184 4.57031 21.3184C4.14714 21.3184 3.8151 21.2077 3.57422 20.9863C3.33333 20.7715 3.19987 20.5013 3.17383 20.1758C3.1543 19.8568 3.25521 19.5443 3.47656 19.2383C3.61979 19.056 3.78255 18.8281 3.96484 18.5547C4.15365 18.2812 4.33919 17.998 4.52148 17.7051C4.70378 17.4056 4.86328 17.1322 5 16.8848C3.98438 16.3704 3.10221 15.7227 2.35352 14.9414C1.60482 14.1602 1.02539 13.2878 0.615234 12.3242C0.205078 11.3542 0 10.3353 0 9.26758C0 7.97852 0.296224 6.77409 0.888672 5.6543C1.48112 4.53451 2.30143 3.55143 3.34961 2.70508C4.39779 1.85872 5.61523 1.19792 7.00195 0.722656C8.39518 0.240885 9.88932 0 11.4844 0Z" fill="#ADADAD"/>
</svg>
