<svg width="14" height="13" viewBox="0 0 14 13" fill="none" xmlns="http://www.w3.org/2000/svg">
<path d="M10.1627 1.87253H12.2794C13.0701 1.87253 13.7111 2.5135 13.7111 3.30418V11.0646C13.7111 11.8553 13.0701 12.4962 12.2794 12.4962H10.1627V1.87253Z" fill="#313131"/>
<path d="M3.54839 1.87253H1.43166C0.640975 1.87253 0 2.5135 0 3.30418V11.0646C0 11.8553 0.640975 12.4962 1.43166 12.4962H3.54839V1.87253Z" fill="#313131"/>
<path d="M4.33249 1.87253H9.37859V12.4962H4.33249V1.87253Z" fill="#313131"/>
<path d="M5.00078 1.78376H8.71041V0.937876C8.71041 0.806096 8.60359 0.699267 8.47181 0.699267H5.23939C5.10761 0.699267 5.00078 0.806096 5.00078 0.937876V1.78376ZM9.37871 2.48303H4.33249V0.499337C4.33249 0.223561 4.54615 0 4.80971 0H8.90149L8.94996 0.00243817C9.1907 0.0279029 9.37871 0.240718 9.37871 0.499337V2.48303Z" fill="#313131"/>
</svg>
