<svg width="16" height="14" viewBox="0 0 16 14" fill="none" xmlns="http://www.w3.org/2000/svg">
<path d="M7.78886 0C8.61829 0 9.40328 0.137533 10.1438 0.412598C10.8886 0.687663 11.5594 1.07487 12.1561 1.57422C12.7527 2.06934 13.2521 2.6512 13.6541 3.31982C14.0561 3.98844 14.3333 4.71419 14.4856 5.49707H15.0569C15.2347 5.49707 15.368 5.54362 15.4568 5.63672C15.5499 5.72982 15.5944 5.84408 15.5901 5.97949C15.5859 6.11068 15.5372 6.23763 15.4441 6.36035L13.7937 8.50586C13.6964 8.63704 13.5716 8.70264 13.4192 8.70264C13.2669 8.70264 13.1421 8.63704 13.0447 8.50586L11.4007 6.36035C11.3076 6.23763 11.2589 6.11068 11.2547 5.97949C11.2547 5.84408 11.297 5.72982 11.3816 5.63672C11.4663 5.54362 11.5953 5.49707 11.7688 5.49707H12.4417C12.302 4.99349 12.0841 4.52799 11.7879 4.10059C11.4959 3.66895 11.1447 3.29655 10.7342 2.9834C10.3279 2.66602 9.87301 2.42057 9.36943 2.24707C8.87008 2.06934 8.34322 1.98047 7.78886 1.98047C7.25566 1.98047 6.74785 2.06722 6.26543 2.24072C5.783 2.41423 5.34925 2.65332 4.96416 2.95801C4.65947 3.15267 4.38229 3.22249 4.13261 3.16748C3.88294 3.10824 3.68616 2.98763 3.54228 2.80566C3.38571 2.60254 3.31377 2.36133 3.32646 2.08203C3.34339 1.80273 3.4915 1.56576 3.7708 1.37109C4.32093 0.943685 4.93665 0.609375 5.61796 0.368164C6.30351 0.122721 7.02714 0 7.78886 0ZM7.78886 13.6475C6.96367 13.6475 6.18079 13.5078 5.44023 13.2285C4.69967 12.9535 4.02893 12.5662 3.42802 12.0669C2.83134 11.5718 2.33199 10.992 1.92998 10.3276C1.52796 9.65902 1.25078 8.93115 1.09843 8.14404H0.520796C0.347294 8.14404 0.216109 8.09961 0.127242 8.01074C0.0383745 7.91764 -0.00394324 7.80339 0.00028853 7.66797C0.0045203 7.53255 0.0531857 7.4056 0.146285 7.28711L1.79668 5.1416C1.88977 5.01042 2.0125 4.94482 2.16484 4.94482C2.31718 4.94482 2.44202 5.01042 2.53935 5.1416L4.18339 7.28711C4.28072 7.4056 4.32939 7.53255 4.32939 7.66797C4.33362 7.80339 4.2913 7.91764 4.20244 8.01074C4.1178 8.09961 3.98873 8.14404 3.81523 8.14404H3.14238C3.28203 8.65186 3.49785 9.11947 3.78984 9.54688C4.08606 9.97428 4.43942 10.3467 4.8499 10.6641C5.26038 10.9814 5.71529 11.229 6.21464 11.4067C6.71399 11.5802 7.23873 11.667 7.78886 11.667C8.3263 11.667 8.83623 11.5802 9.31865 11.4067C9.8053 11.2332 10.2391 10.9941 10.6199 10.6895C10.9246 10.4906 11.2018 10.4207 11.4515 10.48C11.7011 10.5392 11.8979 10.6598 12.0418 10.8418C12.1984 11.0407 12.2682 11.2798 12.2513 11.5591C12.2386 11.8426 12.0926 12.0817 11.8133 12.2764C11.2631 12.7038 10.6453 13.0381 9.95976 13.2793C9.27845 13.5247 8.55481 13.6475 7.78886 13.6475Z" fill="#141414"/>
</svg>
